<?xml version="1.0" encoding="utf-8"?>
<!-- Generator: Adobe Illustrator 16.0.0, SVG Export Plug-In . SVG Version: 6.00 Build 0)  -->
<!DOCTYPE svg PUBLIC "-//W3C//DTD SVG 1.1 Tiny//EN" "http://www.w3.org/Graphics/SVG/1.1/DTD/svg11-tiny.dtd">
<svg xmlns="http://www.w3.org/2000/svg" xmlns:xlink="http://www.w3.org/1999/xlink" version="1.1" baseProfile="tiny" id="Layer_1" x="0px" y="0px" width="512px" height="512px" viewBox="0 0 24 24" xml:space="preserve">
<g>
	<path fill="#D80027" d="M3.667,17.635c0,1.398,0.56,2.085,1.78,2.213v2.766c0,0.482,0.591,0.875,1.318,0.875   s1.319-0.392,1.319-0.875v-2.739c0.618,0.002,1.267,0.004,1.888,0.006v2.733c0,0.482,0.591,0.875,1.318,0.875   s1.319-0.392,1.319-0.875v-2.758c1.251-0.136,1.807-0.891,1.807-2.193c0-1.443,0-7.636,0-7.636H3.679   C3.679,10.027,3.667,16.08,3.667,17.635z M1.324,9.084c-0.731,0-1.326,0.399-1.326,0.893v5.434c0,0.494,0.595,0.895,1.326,0.895   c0.734,0,1.329-0.4,1.329-0.895V9.978C2.653,9.484,2.058,9.084,1.324,9.084z M24.002,3.004c0-1.079-0.875-1.953-1.954-1.953   c-0.932,0-1.709,0.653-1.904,1.526c-0.203-0.874-0.985-1.526-1.92-1.526c-1.091,0-1.974,0.883-1.974,1.973   c0,0.19,0.028,0.369,0.055,0.547c0.16-0.056,0.329-0.092,0.507-0.092c0.852,0,1.542,0.69,1.542,1.542   c0,0.482-0.226,0.907-0.572,1.19c0.435,0.415,0.897,0.754,1.299,1.006l-3.772,3.772c-0.342,0.341-0.201,1.037,0.313,1.551   c0.514,0.513,1.21,0.655,1.552,0.313l3.789-3.789c0.336-0.336,0.2-1.015-0.295-1.526C21.715,6.979,24.002,5.479,24.002,3.004z    M3.624,9.053l10.709-1.614c-0.497-1.577-1.729-2.787-3.263-3.348c0.011-0.018,0.032-0.03,0.041-0.051l1.279-2.916   c0.103-0.233-0.018-0.495-0.272-0.584c-0.25-0.087-0.538,0.029-0.642,0.265L10.198,3.72c-0.018,0.041-0.021,0.083-0.025,0.125   c-0.598-0.11-1.225-0.133-1.862-0.037C7.666,3.905,7.067,4.114,6.523,4.4C6.505,4.359,6.49,4.318,6.46,4.284l-2.082-2.41   C4.21,1.679,3.901,1.653,3.687,1.811C3.472,1.971,3.433,2.256,3.6,2.449l2.081,2.409C5.697,4.877,5.724,4.884,5.744,4.9   C4.448,5.888,3.633,7.403,3.624,9.053z M10.679,5.041c0.393-0.059,0.759,0.211,0.819,0.604c0.059,0.394-0.212,0.76-0.604,0.819   c-0.394,0.06-0.76-0.211-0.82-0.604C10.016,5.465,10.285,5.1,10.679,5.041z M6.359,5.691C6.75,5.632,7.118,5.903,7.177,6.296   c0.06,0.393-0.211,0.76-0.604,0.819c-0.394,0.059-0.76-0.211-0.819-0.604C5.696,6.117,5.965,5.751,6.359,5.691z"/>
</g>
</svg>
